<svg style="display: none;" aria-hidden="true" xmlns="http://www.w3.org/2000/svg" xmlns:xlink="http://www.w3.org/1999/xlink"><symbol viewBox="0 0 512 512" id="svg-clover-leaf-svgrepo-com"><path d="M0,256.006C0,397.402,114.606,512.004,255.996,512C397.394,512.004,512,397.402,512,256.006	C512.009,114.61,397.394,0,255.996,0C114.606,0,0,114.614,0,256.006z" fill="#9ed368"/><path d="M512,256.005c0.001-9.062-0.485-18.011-1.404-26.831c-0.238-0.234-0.432-0.511-0.707-0.706	c-0.414-0.583-112.521-112.688-113.1-113.1c-1.114-1.564-2.851-2.636-4.867-2.73c-156.606-7.143-216.825,46.701-239.869,93.132	c-5.959,12.013-9.678,25.657-11.959,38.931c-0.5-0.3-1.05-0.531-1.637-0.688c-3.087-0.85-6.322,0.763-7.553,3.718	c-22.518,54.086-8.046,114.897-6.425,121.275c-7.949,13.569-11.675,21.634-11.828,21.975c-1.264,2.81-0.238,5.961,2.166,7.705	c0.402,0.579,0.898,1.06,1.488,1.487c0.402,0.58,108.046,108.208,108.636,108.637c0.387,0.556,0.871,1.014,1.429,1.429	c9.727,1.121,19.599,1.759,29.627,1.759C397.394,512.004,512,397.401,512,256.005z" fill="#8bc052"/><path d="M397.92,117.858c-0.544-2.918-3.028-5.082-5.997-5.219c-156.606-7.143-216.825,46.7-239.869,93.132	c-5.959,12.013-9.678,25.657-11.959,38.931c-0.5-0.3-1.05-0.531-1.637-0.688c-3.088-0.85-6.322,0.763-7.553,3.718	c-22.519,54.086-8.046,114.896-6.425,121.275c-7.948,13.569-11.675,21.633-11.828,21.975c-1.446,3.219-0.01,7.006,3.216,8.457	c0.85,0.381,1.741,0.562,2.619,0.562c2.441,0,4.772-1.406,5.841-3.775c0.151-0.339,3.9-8.417,11.892-21.975	c74.859-1.987,120.884-12.345,157.811-35.474C422.476,258.315,398.182,119.252,397.92,117.858z M132.26,296.277	c1.488,5.325,3.65,10.087,6.743,13.594c1.835,2.075,4.797,2.756,7.328,1.637c2.544-1.093,4.094-3.694,3.846-6.45	c-0.053-0.562-4.866-56.9,13.344-93.6c20.543-41.397,74.019-89.12,211.315-86.547c-38.171,23.315-71.455,47.66-100.271,71.779	c-0.287,0.227-0.59,0.416-0.836,0.693c-4.841,4.063-9.565,8.117-14.156,12.159c-0.658-11.867-0.516-32.11,5.777-50.685	c1.134-3.35-0.662-6.981-4.01-8.118c-3.341-1.137-6.981,0.662-8.115,4.006c-9.541,28.174-6.465,58.598-5.584,65.53	c-22.583,20.729-41.954,40.939-58.333,59.782c-0.962-19.644-1.327-61.677,11.361-81.394c1.913-2.969,1.056-6.931-1.919-8.844	c-2.969-1.9-6.928-1.056-8.844,1.919c-19.187,29.812-12.915,97.225-12.638,100.081c0.064,0.662,0.291,1.261,0.538,1.844	c-18.848,22.847-33.149,43.171-43.455,59.264C132.261,340.004,130.043,319.129,132.26,296.277z M287.235,327.927	c-33.474,20.969-75.552,30.833-143.011,33.271c13.309-20.954,33.825-49.751,63.085-82.206c6.665,3.73,24.785,12.241,51.486,12.241	c11.959,0,25.637-1.707,40.763-6.325c3.381-1.031,5.284-4.606,4.253-7.987c-1.028-3.381-4.625-5.307-7.99-4.25	c-40.558,12.373-68.944,1.855-79.553-3.418c18.103-19.344,39.196-39.751,63.666-60.419c6.384,1.978,20.26,5.594,36.412,5.594	c11.21,0,23.519-1.744,35.169-6.988c3.225-1.45,4.662-5.237,3.213-8.463c-1.45-3.231-5.25-4.656-8.463-3.213	c-19.126,8.609-41.141,5.909-54.171,2.998c27.516-22.306,59.001-44.714,94.739-66.186	C389.619,167.046,387.666,265.015,287.235,327.927z" fill="#f4f6f9"/></symbol><symbol viewBox="0 0 511.999 511.999" id="svg-leaf-green-svgrepo-com"><path d="M90.738,421.262c145.944,145.945,485.68-115.381,410.554-410.554	C206.118-64.418-55.206,275.318,90.738,421.262z" fill="#76cc5b"/><path d="M90.738,374.976c-23.112-23.112-36-51.091-40.166-81.509	c-6.04,48.061,5.702,93.332,40.166,127.795C226.369,556.893,529.369,340.778,511.216,72.64	C494.625,318.485,218.465,502.704,90.738,374.976z" opacity=".2"/><path d="M399.172,206.679l-64.02-13.466l62.685-62.685c4.519-4.519,4.519-11.846,0-16.365	s-11.846-4.519-16.364,0l-62.687,62.687l-13.466-64.02c-1.316-6.253-7.449-10.259-13.705-8.941	c-6.255,1.316-10.257,7.452-8.943,13.705l16.574,78.796l-58.589,58.589l-13.466-64.02c-1.316-6.255-7.449-10.259-13.705-8.943	c-6.253,1.316-10.257,7.452-8.941,13.705l16.574,78.796l-58.589,58.589l-13.466-64.02c-1.316-6.253-7.451-10.257-13.705-8.941	c-6.255,1.316-10.257,7.452-8.942,13.705l16.574,78.795L3.389,492.247c-4.519,4.519-4.519,11.845,0,16.364	c2.259,2.259,5.221,3.388,8.182,3.388s5.923-1.129,8.182-3.388l139.602-139.602l78.796,16.574c0.804,0.17,1.605,0.25,2.393,0.25	c5.357,0,10.166-3.741,11.312-9.192c1.316-6.253-2.688-12.391-8.943-13.705l-64.02-13.466l58.589-58.589l78.796,16.574	c0.804,0.168,1.605,0.25,2.393,0.25c5.357,0,10.164-3.741,11.312-9.192c1.316-6.253-2.688-12.389-8.941-13.705l-64.02-13.466	l58.589-58.589l78.796,16.575c0.804,0.168,1.605,0.25,2.393,0.25c5.357,0,10.166-3.741,11.312-9.192	C409.429,214.13,405.427,207.994,399.172,206.679z" fill="#599944"/></symbol><symbol viewBox="0 0 473.806 473.806" id="svg-phone"><path d="M374.456 293.506c-9.7-10.1-21.4-15.5-33.8-15.5-12.3 0-24.1 5.3-34.2 15.4l-31.6 31.5c-2.6-1.4-5.2-2.7-7.7-4-3.6-1.8-7-3.5-9.9-5.3-29.6-18.8-56.5-43.3-82.3-75-12.5-15.8-20.9-29.1-27-42.6 8.2-7.5 15.8-15.3 23.2-22.8 2.8-2.8 5.6-5.7 8.4-8.5 21-21 21-48.2 0-69.2l-27.3-27.3c-3.1-3.1-6.3-6.3-9.3-9.5-6-6.2-12.3-12.6-18.8-18.6-9.7-9.6-21.3-14.7-33.5-14.7s-24 5.1-34 14.7c-.1.1-.1.1-.2.2l-34 34.3c-12.8 12.8-20.1 28.4-21.7 46.5-2.4 29.2 6.2 56.4 12.8 74.2 16.2 43.7 40.4 84.2 76.5 127.6 43.8 52.3 96.5 93.6 156.7 122.7 23 10.9 53.7 23.8 88 26 2.1.1 4.3.2 6.3.2 23.1 0 42.5-8.3 57.7-24.8.1-.2.3-.3.4-.5 5.2-6.3 11.2-12 17.5-18.1 4.3-4.1 8.7-8.4 13-12.9 9.9-10.3 15.1-22.3 15.1-34.6 0-12.4-5.3-24.3-15.4-34.3L374.456 293.506zM410.256 398.806C410.156 398.806 410.156 398.906 410.256 398.806c-3.9 4.2-7.9 8-12.2 12.2-6.5 6.2-13.1 12.7-19.3 20-10.1 10.8-22 15.9-37.6 15.9-1.5 0-3.1 0-4.6-.1-29.7-1.9-57.3-13.5-78-23.4-56.6-27.4-106.3-66.3-147.6-115.6-34.1-41.1-56.9-79.1-72-119.9-9.3-24.9-12.7-44.3-11.2-62.6 1-11.7 5.5-21.4 13.8-29.7l34.1-34.1c4.9-4.6 10.1-7.1 15.2-7.1 6.3 0 11.4 3.8 14.6 7 .1.1.2.2.3.3 6.1 5.7 11.9 11.6 18 17.9 3.1 3.2 6.3 6.4 9.5 9.7l27.3 27.3c10.6 10.6 10.6 20.4 0 31-2.9 2.9-5.7 5.8-8.6 8.6-8.4 8.6-16.4 16.6-25.1 24.4-.2.2-.4.3-.5.5-8.6 8.6-7 17-5.2 22.7.1.3.2.6.3.9 7.1 17.2 17.1 33.4 32.3 52.7l.1.1c27.6 34 56.7 60.5 88.8 80.8 4.1 2.6 8.3 4.7 12.3 6.7 3.6 1.8 7 3.5 9.9 5.3.4.2.8.5 1.2.7 3.4 1.7 6.6 2.5 9.9 2.5 8.3 0 13.5-5.2 15.2-6.9l34.2-34.2c3.4-3.4 8.8-7.5 15.1-7.5 6.2 0 11.3 3.9 14.4 7.3.1.1.1.1.2.2l55.1 55.1C420.456 377.706 420.456 388.206 410.256 398.806zM256.056 112.706c26.2 4.4 50 16.8 69 35.8s31.3 42.8 35.8 69c1.1 6.6 6.8 11.2 13.3 11.2.8 0 1.5-.1 2.3-.2 7.4-1.2 12.3-8.2 11.1-15.6-5.4-31.7-20.4-60.6-43.3-83.5s-51.8-37.9-83.5-43.3c-7.4-1.2-14.3 3.7-15.6 11S248.656 111.506 256.056 112.706zM473.256 209.006c-8.9-52.2-33.5-99.7-71.3-137.5s-85.3-62.4-137.5-71.3c-7.3-1.3-14.2 3.7-15.5 11-1.2 7.4 3.7 14.3 11.1 15.6 46.6 7.9 89.1 30 122.9 63.7 33.8 33.8 55.8 76.3 63.7 122.9 1.1 6.6 6.8 11.2 13.3 11.2.8 0 1.5-.1 2.3-.2C469.556 223.306 474.556 216.306 473.256 209.006z"/></symbol></svg>